<svg xmlns="http://www.w3.org/2000/svg" viewBox="0 0 1600 760" fill="none">
  <defs>
    <linearGradient id="bg-bo-do-tho-men-lam-ve-tay-bat-trang" x1="0" y1="0" x2="1600" y2="760" gradientUnits="userSpaceOnUse">
      <stop offset="0%" stop-color="#122753" />
      <stop offset="100%" stop-color="#ecefeb" />
    </linearGradient>
    <linearGradient id="shade-bo-do-tho-men-lam-ve-tay-bat-trang" x1="0" y1="0" x2="760" y2="0" gradientUnits="userSpaceOnUse">
      <stop offset="0%" stop-color="rgba(6,12,22,0.780)" />
      <stop offset="100%" stop-color="rgba(6,12,22,0.080)" />
    </linearGradient>
    <radialGradient id="mist-bo-do-tho-men-lam-ve-tay-bat-trang" cx="0" cy="0" r="1" gradientUnits="userSpaceOnUse" gradientTransform="translate(1080 320) rotate(90) scale(360 360)">
      <stop offset="0%" stop-color="rgba(225,234,248,0.880)" />
      <stop offset="100%" stop-color="rgba(225,234,248,0.000)" />
    </radialGradient>
    <radialGradient id="gold-bo-do-tho-men-lam-ve-tay-bat-trang" cx="0" cy="0" r="1" gradientUnits="userSpaceOnUse" gradientTransform="translate(1290 190) rotate(90) scale(170 170)">
      <stop offset="0%" stop-color="rgba(207,168,82,0.800)" />
      <stop offset="100%" stop-color="rgba(207,168,82,0.000)" />
    </radialGradient>
    <filter id="blur-bo-do-tho-men-lam-ve-tay-bat-trang" x="-20%" y="-20%" width="140%" height="140%">
      <feGaussianBlur stdDeviation="36" />
    </filter>
  </defs>

  <rect width="1600" height="760" fill="url(#bg-bo-do-tho-men-lam-ve-tay-bat-trang)"/>
  <rect width="760" height="760" fill="url(#shade-bo-do-tho-men-lam-ve-tay-bat-trang)"/>
  <ellipse cx="1080" cy="320" rx="360" ry="360" fill="url(#mist-bo-do-tho-men-lam-ve-tay-bat-trang)" filter="url(#blur-bo-do-tho-men-lam-ve-tay-bat-trang)"/>
  <ellipse cx="1290" cy="190" rx="170" ry="170" fill="url(#gold-bo-do-tho-men-lam-ve-tay-bat-trang)" filter="url(#blur-bo-do-tho-men-lam-ve-tay-bat-trang)"/>

  <g opacity="0.42" stroke="rgba(149,182,228,0.560)" stroke-width="3">
    <path d="M746 504C792 292 904 206 1010 206c106 0 210 86 254 298" />
    <path d="M784 504C822 324 914 252 1010 252c96 0 188 72 226 252" />
    <path d="M824 504C856 354 932 294 1010 294c78 0 154 60 186 210" />
    <path d="M860 504C888 382 948 334 1010 334c62 0 122 48 150 170" />
  </g>

  <g opacity="0.5" stroke="rgba(149,182,228,0.420)" stroke-width="2">
    <path d="M150 132C258 118 398 118 540 132" />
    <path d="M188 176C282 164 394 164 486 176" />
    <path d="M206 218C282 210 370 210 442 218" />
    <path d="M192 198C268 172 336 172 430 198" stroke="rgba(207,168,82,0.350)"/>
  </g>

  
  
  
  

  <g transform="translate(1115 610) scale(0.98)">
  <ellipse cx="0" cy="18" rx="280" ry="38" fill="rgba(10,22,49,0.280)"/>
  <rect x="-300" y="-18" width="600" height="32" rx="16" fill="rgba(27,71,146,0.240)"/>
  <line x1="-278" y1="-12" x2="278" y2="-12" stroke="rgba(207,168,82,0.300)" stroke-width="4" stroke-linecap="round"/>

  <path d="M-255 0C-276-58-262-180-230-238C-214-266-208-286-206-314H-176C-174-286-168-266-152-238C-120-180-106-58-126 0Z" fill="#f6f3eb" stroke="rgba(27,71,146,0.900)" stroke-width="3"/>
  <ellipse cx="-191" cy="-314" rx="18" ry="6" fill="#f6f3eb" stroke="rgba(27,71,146,0.900)" stroke-width="3"/>
  <line x1="-224" y1="-118" x2="-158" y2="-118" stroke="rgba(56,110,198,0.780)" stroke-width="4" stroke-linecap="round"/>
  <line x1="-234" y1="-84" x2="-148" y2="-84" stroke="rgba(56,110,198,0.780)" stroke-width="4" stroke-linecap="round"/>

  <path d="M255 0C276-58 262-180 230-238C214-266 208-286 206-314H176C174-286 168-266 152-238C120-180 106-58 126 0Z" fill="#f6f3eb" stroke="rgba(27,71,146,0.900)" stroke-width="3"/>
  <ellipse cx="191" cy="-314" rx="18" ry="6" fill="#f6f3eb" stroke="rgba(27,71,146,0.900)" stroke-width="3"/>
  <line x1="158" y1="-118" x2="224" y2="-118" stroke="rgba(56,110,198,0.780)" stroke-width="4" stroke-linecap="round"/>
  <line x1="148" y1="-84" x2="234" y2="-84" stroke="rgba(56,110,198,0.780)" stroke-width="4" stroke-linecap="round"/>

  <rect x="-142" y="-182" width="28" height="126" rx="10" fill="#f6f3eb" stroke="rgba(27,71,146,0.900)" stroke-width="3"/>
  <ellipse cx="-128" cy="-56" rx="18" ry="10" fill="#f6f3eb" stroke="rgba(27,71,146,0.900)" stroke-width="3"/>
  <rect x="-136" y="-56" width="16" height="34" rx="7" fill="#f6f3eb" stroke="rgba(27,71,146,0.900)" stroke-width="3"/>
  <ellipse cx="-128" cy="12" rx="16" ry="7" fill="#f6f3eb" stroke="rgba(27,71,146,0.900)" stroke-width="3"/>
  <line x1="-142" y1="-116" x2="-114" y2="-116" stroke="rgba(56,110,198,0.780)" stroke-width="3.2" stroke-linecap="round"/>
  <path d="M-128-214L-138-182L-128-192L-118-182Z" fill="rgba(207,168,82,0.820)"/>

  <rect x="114" y="-182" width="28" height="126" rx="10" fill="#f6f3eb" stroke="rgba(27,71,146,0.900)" stroke-width="3"/>
  <ellipse cx="128" cy="-56" rx="18" ry="10" fill="#f6f3eb" stroke="rgba(27,71,146,0.900)" stroke-width="3"/>
  <rect x="120" y="-56" width="16" height="34" rx="7" fill="#f6f3eb" stroke="rgba(27,71,146,0.900)" stroke-width="3"/>
  <ellipse cx="128" cy="12" rx="16" ry="7" fill="#f6f3eb" stroke="rgba(27,71,146,0.900)" stroke-width="3"/>
  <line x1="114" y1="-116" x2="142" y2="-116" stroke="rgba(56,110,198,0.780)" stroke-width="3.2" stroke-linecap="round"/>
  <path d="M128-214L118-182L128-192L138-182Z" fill="rgba(207,168,82,0.820)"/>

  <ellipse cx="0" cy="-92" rx="92" ry="58" fill="#f6f3eb" stroke="rgba(27,71,146,0.900)" stroke-width="3"/>
  <rect x="-18" y="-62" width="36" height="48" rx="10" fill="#f6f3eb" stroke="rgba(27,71,146,0.900)" stroke-width="3"/>
  <ellipse cx="0" cy="6" rx="34" ry="10" fill="#f6f3eb" stroke="rgba(27,71,146,0.900)" stroke-width="3"/>
  <ellipse cx="0" cy="-136" rx="48" ry="10" fill="#f6f3eb" stroke="rgba(27,71,146,0.900)" stroke-width="3"/>
  <path d="M-34-134Q0-176 34-134L22-120H-22Z" fill="#f6f3eb" stroke="rgba(27,71,146,0.900)" stroke-width="3"/>
  <circle cx="0" cy="-180" r="7" fill="rgba(207,168,82,0.820)"/>
  <line x1="-54" y1="-102" x2="54" y2="-102" stroke="rgba(56,110,198,0.780)" stroke-width="4" stroke-linecap="round"/>
  <line x1="-58" y1="-74" x2="58" y2="-74" stroke="rgba(56,110,198,0.780)" stroke-width="4" stroke-linecap="round"/>

  <ellipse cx="-64" cy="-20" rx="18" ry="13" fill="#f6f3eb" stroke="rgba(27,71,146,0.900)" stroke-width="2.8"/>
  <rect x="-71" y="-20" width="14" height="22" rx="6" fill="#f6f3eb" stroke="rgba(27,71,146,0.900)" stroke-width="2.8"/>
  <ellipse cx="-64" cy="6" rx="10" ry="4" fill="#f6f3eb" stroke="rgba(27,71,146,0.900)" stroke-width="2.8"/>

  <ellipse cx="0" cy="-20" rx="18" ry="13" fill="#f6f3eb" stroke="rgba(27,71,146,0.900)" stroke-width="2.8"/>
  <rect x="-7" y="-20" width="14" height="22" rx="6" fill="#f6f3eb" stroke="rgba(27,71,146,0.900)" stroke-width="2.8"/>
  <ellipse cx="0" cy="6" rx="10" ry="4" fill="#f6f3eb" stroke="rgba(27,71,146,0.900)" stroke-width="2.8"/>

  <ellipse cx="64" cy="-20" rx="18" ry="13" fill="#f6f3eb" stroke="rgba(27,71,146,0.900)" stroke-width="2.8"/>
  <rect x="57" y="-20" width="14" height="22" rx="6" fill="#f6f3eb" stroke="rgba(27,71,146,0.900)" stroke-width="2.8"/>
  <ellipse cx="64" cy="6" rx="10" ry="4" fill="#f6f3eb" stroke="rgba(27,71,146,0.900)" stroke-width="2.8"/>

  <ellipse cx="0" cy="6" rx="54" ry="16" fill="#f6f3eb" stroke="rgba(27,71,146,0.900)" stroke-width="2.8"/>
  <rect x="-8" y="6" width="16" height="18" rx="7" fill="#f6f3eb" stroke="rgba(27,71,146,0.900)" stroke-width="2.8"/>
  <ellipse cx="0" cy="28" rx="18" ry="6" fill="#f6f3eb" stroke="rgba(27,71,146,0.900)" stroke-width="2.8"/>


</g>
</svg>