<svg xmlns="http://www.w3.org/2000/svg" viewBox="0 0 640 640" fill="none">
  <defs>
    <filter id="shadow-bo-do-tho-men-lam-ve-vang-bat-trang" x="-20%" y="-20%" width="140%" height="140%">
      <feGaussianBlur stdDeviation="26" />
    </filter>
    <radialGradient id="disc-bo-do-tho-men-lam-ve-vang-bat-trang" cx="0" cy="0" r="1" gradientUnits="userSpaceOnUse" gradientTransform="translate(320 308) rotate(90) scale(190 190)">
      <stop offset="0%" stop-color="#f9f5ec" />
      <stop offset="100%" stop-color="rgba(249,245,236,0.920)" />
    </radialGradient>
  </defs>

  <ellipse cx="320" cy="350" rx="180" ry="180" fill="rgba(0,0,0,0.340)" filter="url(#shadow-bo-do-tho-men-lam-ve-vang-bat-trang)"/>
  <circle cx="320" cy="320" r="206" fill="rgba(221,182,78,0.180)"/>
  <circle cx="320" cy="308" r="192" fill="url(#disc-bo-do-tho-men-lam-ve-vang-bat-trang)"/>
  <circle cx="320" cy="308" r="180" stroke="rgba(22,78,160,0.550)" stroke-width="4"/>
  <circle cx="320" cy="308" r="162" stroke="rgba(221,182,78,0.620)" stroke-width="3"/>

  
  <path d="M210 196 Q320 136 430 196" stroke="rgba(221,182,78,0.440)" stroke-width="2" stroke-linecap="round"/>
<path d="M229 201 Q320 149 411 201" stroke="rgba(221,182,78,0.383)" stroke-width="2" stroke-linecap="round"/>
<path d="M248 205 Q320 163 392 205" stroke="rgba(221,182,78,0.326)" stroke-width="2" stroke-linecap="round"/><circle cx="255" cy="214" r="10" fill="rgba(221,182,78,0.180)"/>
<circle cx="233" cy="228" r="9" fill="rgba(221,182,78,0.215)"/>
<circle cx="211" cy="242" r="8" fill="rgba(221,182,78,0.250)"/>
<circle cx="189" cy="214" r="7" fill="rgba(221,182,78,0.285)"/>
<circle cx="167" cy="228" r="6" fill="rgba(221,182,78,0.320)"/>
<circle cx="145" cy="242" r="5" fill="rgba(221,182,78,0.355)"/>
<circle cx="123" cy="214" r="5" fill="rgba(221,182,78,0.390)"/>
<circle cx="101" cy="228" r="5" fill="rgba(221,182,78,0.425)"/>
<circle cx="385" cy="214" r="10" fill="rgba(221,182,78,0.180)"/>
<circle cx="407" cy="228" r="9" fill="rgba(221,182,78,0.215)"/>
<circle cx="429" cy="242" r="8" fill="rgba(221,182,78,0.250)"/>
<circle cx="451" cy="214" r="7" fill="rgba(221,182,78,0.285)"/>
<circle cx="473" cy="228" r="6" fill="rgba(221,182,78,0.320)"/>
<circle cx="495" cy="242" r="5" fill="rgba(221,182,78,0.355)"/>
<circle cx="517" cy="214" r="5" fill="rgba(221,182,78,0.390)"/>
<circle cx="539" cy="228" r="5" fill="rgba(221,182,78,0.425)"/>
  
  <g transform="translate(320 420) scale(0.43)">
  <ellipse cx="0" cy="18" rx="280" ry="38" fill="rgba(12,24,50,0.380)"/>
  <rect x="-300" y="-18" width="600" height="32" rx="16" fill="rgba(22,78,160,0.300)"/>
  <line x1="-278" y1="-12" x2="278" y2="-12" stroke="rgba(221,182,78,0.380)" stroke-width="4" stroke-linecap="round"/>

  <path d="M-255 0C-276-58-262-180-230-238C-214-266-208-286-206-314H-176C-174-286-168-266-152-238C-120-180-106-58-126 0Z" fill="#f9f5ec" stroke="rgba(22,78,160,0.900)" stroke-width="3"/>
  <ellipse cx="-191" cy="-314" rx="18" ry="6" fill="#f9f5ec" stroke="rgba(22,78,160,0.900)" stroke-width="3"/>
  <line x1="-224" y1="-118" x2="-158" y2="-118" stroke="rgba(36,111,204,0.780)" stroke-width="4" stroke-linecap="round"/>
  <line x1="-234" y1="-84" x2="-148" y2="-84" stroke="rgba(36,111,204,0.780)" stroke-width="4" stroke-linecap="round"/>

  <path d="M255 0C276-58 262-180 230-238C214-266 208-286 206-314H176C174-286 168-266 152-238C120-180 106-58 126 0Z" fill="#f9f5ec" stroke="rgba(22,78,160,0.900)" stroke-width="3"/>
  <ellipse cx="191" cy="-314" rx="18" ry="6" fill="#f9f5ec" stroke="rgba(22,78,160,0.900)" stroke-width="3"/>
  <line x1="158" y1="-118" x2="224" y2="-118" stroke="rgba(36,111,204,0.780)" stroke-width="4" stroke-linecap="round"/>
  <line x1="148" y1="-84" x2="234" y2="-84" stroke="rgba(36,111,204,0.780)" stroke-width="4" stroke-linecap="round"/>

  <rect x="-142" y="-182" width="28" height="126" rx="10" fill="#f9f5ec" stroke="rgba(22,78,160,0.900)" stroke-width="3"/>
  <ellipse cx="-128" cy="-56" rx="18" ry="10" fill="#f9f5ec" stroke="rgba(22,78,160,0.900)" stroke-width="3"/>
  <rect x="-136" y="-56" width="16" height="34" rx="7" fill="#f9f5ec" stroke="rgba(22,78,160,0.900)" stroke-width="3"/>
  <ellipse cx="-128" cy="12" rx="16" ry="7" fill="#f9f5ec" stroke="rgba(22,78,160,0.900)" stroke-width="3"/>
  <line x1="-142" y1="-116" x2="-114" y2="-116" stroke="rgba(36,111,204,0.780)" stroke-width="3.2" stroke-linecap="round"/>
  <path d="M-128-214L-138-182L-128-192L-118-182Z" fill="rgba(221,182,78,0.820)"/>

  <rect x="114" y="-182" width="28" height="126" rx="10" fill="#f9f5ec" stroke="rgba(22,78,160,0.900)" stroke-width="3"/>
  <ellipse cx="128" cy="-56" rx="18" ry="10" fill="#f9f5ec" stroke="rgba(22,78,160,0.900)" stroke-width="3"/>
  <rect x="120" y="-56" width="16" height="34" rx="7" fill="#f9f5ec" stroke="rgba(22,78,160,0.900)" stroke-width="3"/>
  <ellipse cx="128" cy="12" rx="16" ry="7" fill="#f9f5ec" stroke="rgba(22,78,160,0.900)" stroke-width="3"/>
  <line x1="114" y1="-116" x2="142" y2="-116" stroke="rgba(36,111,204,0.780)" stroke-width="3.2" stroke-linecap="round"/>
  <path d="M128-214L118-182L128-192L138-182Z" fill="rgba(221,182,78,0.820)"/>

  <ellipse cx="0" cy="-92" rx="92" ry="58" fill="#f9f5ec" stroke="rgba(22,78,160,0.900)" stroke-width="3"/>
  <rect x="-18" y="-62" width="36" height="48" rx="10" fill="#f9f5ec" stroke="rgba(22,78,160,0.900)" stroke-width="3"/>
  <ellipse cx="0" cy="6" rx="34" ry="10" fill="#f9f5ec" stroke="rgba(22,78,160,0.900)" stroke-width="3"/>
  <ellipse cx="0" cy="-136" rx="48" ry="10" fill="#f9f5ec" stroke="rgba(22,78,160,0.900)" stroke-width="3"/>
  <path d="M-34-134Q0-176 34-134L22-120H-22Z" fill="#f9f5ec" stroke="rgba(22,78,160,0.900)" stroke-width="3"/>
  <circle cx="0" cy="-180" r="7" fill="rgba(221,182,78,0.820)"/>
  <line x1="-54" y1="-102" x2="54" y2="-102" stroke="rgba(36,111,204,0.780)" stroke-width="4" stroke-linecap="round"/>
  <line x1="-58" y1="-74" x2="58" y2="-74" stroke="rgba(36,111,204,0.780)" stroke-width="4" stroke-linecap="round"/>

  <ellipse cx="-64" cy="-20" rx="18" ry="13" fill="#f9f5ec" stroke="rgba(22,78,160,0.900)" stroke-width="2.8"/>
  <rect x="-71" y="-20" width="14" height="22" rx="6" fill="#f9f5ec" stroke="rgba(22,78,160,0.900)" stroke-width="2.8"/>
  <ellipse cx="-64" cy="6" rx="10" ry="4" fill="#f9f5ec" stroke="rgba(22,78,160,0.900)" stroke-width="2.8"/>

  <ellipse cx="0" cy="-20" rx="18" ry="13" fill="#f9f5ec" stroke="rgba(22,78,160,0.900)" stroke-width="2.8"/>
  <rect x="-7" y="-20" width="14" height="22" rx="6" fill="#f9f5ec" stroke="rgba(22,78,160,0.900)" stroke-width="2.8"/>
  <ellipse cx="0" cy="6" rx="10" ry="4" fill="#f9f5ec" stroke="rgba(22,78,160,0.900)" stroke-width="2.8"/>

  <ellipse cx="64" cy="-20" rx="18" ry="13" fill="#f9f5ec" stroke="rgba(22,78,160,0.900)" stroke-width="2.8"/>
  <rect x="57" y="-20" width="14" height="22" rx="6" fill="#f9f5ec" stroke="rgba(22,78,160,0.900)" stroke-width="2.8"/>
  <ellipse cx="64" cy="6" rx="10" ry="4" fill="#f9f5ec" stroke="rgba(22,78,160,0.900)" stroke-width="2.8"/>

  <ellipse cx="0" cy="6" rx="54" ry="16" fill="#f9f5ec" stroke="rgba(22,78,160,0.900)" stroke-width="2.8"/>
  <rect x="-8" y="6" width="16" height="18" rx="7" fill="#f9f5ec" stroke="rgba(22,78,160,0.900)" stroke-width="2.8"/>
  <ellipse cx="0" cy="28" rx="18" ry="6" fill="#f9f5ec" stroke="rgba(22,78,160,0.900)" stroke-width="2.8"/>

      <line x1="-34" y1="-126" x2="34" y2="-126" stroke="rgba(221,182,78,0.820)" stroke-width="3.2" stroke-linecap="round"/>
      <line x1="-250" y1="-124" x2="-202" y2="-124" stroke="rgba(221,182,78,0.820)" stroke-width="3" stroke-linecap="round"/>
      <line x1="202" y1="-124" x2="250" y2="-124" stroke="rgba(221,182,78,0.820)" stroke-width="3" stroke-linecap="round"/>
      <line x1="-146" y1="-106" x2="-118" y2="-106" stroke="rgba(221,182,78,0.820)" stroke-width="3" stroke-linecap="round"/>
      <line x1="118" y1="-106" x2="146" y2="-106" stroke="rgba(221,182,78,0.820)" stroke-width="3" stroke-linecap="round"/>
      <line x1="-72" y1="-20" x2="-56" y2="-20" stroke="rgba(221,182,78,0.820)" stroke-width="2.4" stroke-linecap="round"/>
      <line x1="-8" y1="-20" x2="8" y2="-20" stroke="rgba(221,182,78,0.820)" stroke-width="2.4" stroke-linecap="round"/>
      <line x1="56" y1="-20" x2="72" y2="-20" stroke="rgba(221,182,78,0.820)" stroke-width="2.4" stroke-linecap="round"/>
</g>
</svg>